<svg version="1.1" id="Layer_1" xmlns="http://www.w3.org/2000/svg" xmlns:xlink="http://www.w3.org/1999/xlink" x="0px" y="0px"
	 width="100%" viewBox="0 0 1024 1024" enable-background="new 0 0 1024 1024" xml:space="preserve">
<path fill="#100E0F" opacity="1.000000" stroke="none" 
	d="
M647.000000,1025.000000 
	C431.333344,1025.000000 216.166672,1025.000000 1.000000,1025.000000 
	C1.000000,683.666687 1.000000,342.333344 1.000000,1.000000 
	C342.333344,1.000000 683.666687,1.000000 1025.000000,1.000000 
	C1025.000000,342.333344 1025.000000,683.666687 1025.000000,1025.000000 
	C899.166687,1025.000000 773.333313,1025.000000 647.000000,1025.000000 
M743.125427,622.087402 
	C743.064575,617.725647 743.003662,613.363831 743.150879,608.084717 
	C743.084290,597.722839 743.017761,587.360962 743.136902,576.078064 
	C743.075378,552.052368 743.013794,528.026733 743.156067,503.130798 
	C743.087708,500.753601 743.019409,498.376404 743.145325,495.079620 
	C743.146606,471.502808 743.172913,447.925964 743.140503,424.349182 
	C743.118835,408.566620 743.013855,392.784210 743.149597,376.083527 
	C743.128052,359.765381 743.330933,343.442017 742.954712,327.132050 
	C742.834412,321.918915 741.975891,316.428711 740.082642,311.603912 
	C733.582947,295.040833 717.862610,286.729126 696.136719,287.920044 
	C691.657166,287.913116 687.177551,287.901062 682.697998,287.900024 
	C594.058777,287.879669 505.419586,287.843842 416.780396,287.850128 
	C385.123901,287.852386 353.467133,287.894196 321.811066,288.042297 
	C306.573639,288.113556 291.354462,298.106537 286.960846,314.611633 
	C285.373108,320.576111 284.899231,326.989014 284.889557,333.198761 
	C284.757538,418.171906 284.797729,503.145264 284.790222,588.118591 
	C284.789276,598.925232 284.715149,609.731995 284.751007,620.538452 
	C284.796844,634.359070 284.919983,648.179443 284.793457,662.837219 
	C284.866364,664.558167 284.939301,666.279175 284.799835,668.815247 
	C284.867279,670.210144 284.934692,671.605103 284.772919,673.912781 
	C284.830353,686.196838 284.397766,698.511780 285.167450,710.751038 
	C285.513611,716.255798 288.261200,721.609436 289.993896,727.693115 
	C290.497131,728.407654 291.000336,729.122192 291.921356,730.100464 
	C292.247894,730.143311 292.573730,730.191101 292.931976,730.934326 
	C293.929718,732.348450 294.927460,733.762573 296.179871,735.797668 
	C299.783966,738.160950 303.388062,740.524231 307.610809,743.121765 
	C309.399689,743.427856 311.188599,743.733887 312.977814,743.992371 
	C312.977814,743.992371 312.950134,744.031677 313.259888,744.683044 
	C314.509369,745.082275 315.758820,745.481506 317.802887,746.138550 
	C320.282227,746.352905 322.760895,746.743530 325.241058,746.753479 
	C342.710999,746.823730 360.181274,746.849426 377.651367,746.825073 
	C409.426270,746.780823 441.201111,746.691895 473.822601,746.824463 
	C475.556458,746.761108 477.290344,746.697754 479.943939,746.806641 
	C508.954681,746.743774 537.965454,746.680908 567.647278,746.819885 
	C568.106201,746.758545 568.565063,746.697266 569.940918,746.824829 
	C582.952759,746.757446 595.964539,746.690002 609.648987,746.821960 
	C610.107422,746.757568 610.565918,746.693176 611.943909,746.802063 
	C640.914856,746.805542 669.886108,746.882874 698.856323,746.738647 
	C703.595947,746.715088 708.330750,745.714783 713.855774,745.189148 
	C729.630066,741.265808 740.360901,728.925354 742.793274,711.577515 
	C742.801331,710.722229 742.809387,709.867004 743.010864,708.126648 
	C742.977051,705.415466 742.943237,702.704346 743.076355,699.069824 
	C743.031372,677.046204 742.986328,655.022522 743.127930,632.106445 
	C743.062683,629.070679 742.997437,626.034851 743.125427,622.087402 
z"/>
<path fill="#FBFAFB" opacity="1.000000" stroke="none" 
	d="
M285.002106,673.000000 
	C284.934692,671.605103 284.867279,670.210144 285.297424,668.390503 
	C286.519196,666.764404 287.758301,665.572571 287.780731,664.358276 
	C287.794922,663.589417 285.995728,662.787109 285.009827,661.999878 
	C284.919983,648.179443 284.796844,634.359070 284.751007,620.538452 
	C284.715149,609.731995 284.789276,598.925232 284.790222,588.118591 
	C284.797729,503.145264 284.757538,418.171906 284.889557,333.198761 
	C284.899231,326.989014 285.373108,320.576111 286.960846,314.611633 
	C291.354462,298.106537 306.573639,288.113556 321.811066,288.042297 
	C353.467133,287.894196 385.123901,287.852386 416.780396,287.850128 
	C505.419586,287.843842 594.058777,287.879669 682.697998,287.900024 
	C687.177551,287.901062 691.657166,287.913116 696.627991,288.372589 
	C698.115173,289.543579 699.017273,290.655090 700.121704,290.918579 
	C709.384399,293.128204 709.446228,293.078613 709.972839,302.772980 
	C710.127380,305.618134 710.702026,307.288879 714.135132,306.201965 
	C716.357300,305.498413 717.559692,306.305908 718.156982,309.023224 
	C719.200073,313.767853 721.016418,318.344635 722.545776,322.979553 
	C723.698181,326.471954 724.803467,329.986816 726.153320,333.403351 
	C726.595215,334.521698 728.064209,335.233795 728.507751,336.352112 
	C730.704407,341.889862 734.174500,347.437988 734.420593,353.103058 
	C734.726013,360.133728 733.098328,367.205078 736.085144,374.079468 
	C736.622681,375.316711 736.522949,376.956573 736.336975,378.360107 
	C735.644226,383.587555 734.048645,388.817871 734.214783,394.001495 
	C734.374268,398.977631 736.338562,403.888367 737.427429,408.845917 
	C737.897766,410.987396 738.161011,413.174408 738.518311,415.340729 
	C739.604492,414.518494 739.940735,413.658447 739.972046,412.787476 
	C740.341125,402.510986 740.584839,392.229065 741.079895,381.959076 
	C741.160828,380.280518 742.297485,378.652893 742.946228,377.001709 
	C743.013855,392.784210 743.118835,408.566620 743.140503,424.349182 
	C743.172913,447.925964 743.146606,471.502808 742.689453,495.463531 
	C741.125122,493.450317 740.016663,491.053162 738.784912,488.389252 
	C738.377808,488.716492 737.530762,489.061218 737.492615,489.479553 
	C737.060425,494.226227 736.516174,498.981567 736.462891,503.739685 
	C736.370972,511.956604 736.571533,520.177734 736.718140,528.395874 
	C736.776062,531.642639 736.997070,534.887329 737.181152,538.130798 
	C737.486511,543.511780 738.247498,548.907654 738.037720,554.266785 
	C737.774231,560.996826 736.226746,567.689270 736.134583,574.410339 
	C735.999207,584.281067 736.666565,594.162598 736.973816,604.040039 
	C736.994263,604.699463 736.888672,605.367554 736.794739,606.024902 
	C735.868835,612.507141 734.933350,618.987976 733.999817,625.469116 
	C733.695374,627.582642 733.474854,629.712646 733.066101,631.805908 
	C732.091675,636.796082 730.741272,641.730347 730.068481,646.757568 
	C729.105042,653.956543 728.669373,661.224976 727.858948,668.446899 
	C727.718689,669.697021 727.160583,671.270386 726.243164,671.996887 
	C722.878235,674.661377 722.984497,678.202087 722.928711,681.931213 
	C722.887085,684.711792 722.431396,687.544128 721.734680,690.243591 
	C720.685608,694.307861 718.835999,698.200378 718.110229,702.304504 
	C717.192200,707.496277 716.145569,708.727844 711.930908,709.473389 
	C708.469666,713.427185 704.291565,716.667786 700.063477,719.841797 
	C698.272522,721.186096 696.539490,722.897583 694.494995,723.553589 
	C690.271851,724.908508 685.880066,725.788818 681.509338,726.605713 
	C679.968140,726.893738 678.287476,726.356140 676.667725,726.320862 
	C673.978943,726.262207 671.288025,726.304932 668.597961,726.304932 
	C668.600586,726.637146 668.603210,726.969360 668.605835,727.301636 
	C669.976074,727.846985 671.346375,728.392334 672.716675,728.937683 
	C672.746399,729.414185 672.776184,729.890747 672.805908,730.367249 
	C670.759460,730.911438 668.718506,731.900879 666.665588,731.926514 
	C654.669678,732.076111 642.670166,731.930969 630.673706,732.057678 
	C628.248535,732.083252 625.837280,733.166504 623.408997,733.213379 
	C616.399292,733.348877 609.382019,733.290161 602.372437,733.117371 
	C600.268616,733.065552 598.157410,731.963135 596.088501,732.073120 
	C586.697632,732.572571 577.324951,733.825256 567.937866,733.908142 
	C539.278625,734.161133 510.615631,734.047058 481.954681,733.931641 
	C478.884766,733.919250 475.831635,732.634399 472.747955,732.511658 
	C467.473389,732.301636 462.103546,731.993286 456.913086,732.720642 
	C448.268982,733.932007 439.725586,736.335876 431.593903,730.885437 
	C430.698181,730.285095 429.332947,729.932190 428.280426,730.091492 
	C420.957672,731.200012 413.687805,732.701416 406.342712,733.600525 
	C402.613983,734.056824 398.764496,733.470398 394.969055,733.449646 
	C388.318512,733.413208 381.666138,733.537476 375.017334,733.425964 
	C370.053192,733.342712 365.092590,732.793884 360.132050,732.816040 
	C354.231262,732.842407 348.704376,728.788757 342.515167,731.573303 
	C339.658875,732.858398 337.619934,731.152527 337.072083,728.225586 
	C336.451111,724.907898 334.434052,723.877136 331.374908,723.993835 
	C326.788971,724.168823 322.433228,723.978027 319.585785,719.349792 
	C319.016357,718.424194 316.947113,718.397827 315.554901,718.008850 
	C314.309174,717.660889 312.765228,717.743896 311.830627,717.019897 
	C304.576324,711.400330 301.718811,702.889832 299.202667,694.806519 
	C295.837738,683.996277 296.490417,683.658447 288.529144,683.333191 
	C290.060394,673.458984 290.060394,673.458984 285.002106,673.000000 
M513.567444,300.000000 
	C507.105804,298.612762 498.901154,302.425476 494.861298,293.729492 
	C494.705078,293.393219 493.997192,293.133209 493.550262,293.139008 
	C486.741241,293.227386 479.772156,292.508362 473.171692,293.745453 
	C467.134399,294.876984 461.564972,295.647888 455.672638,293.526703 
	C453.964508,292.911865 451.789185,293.402191 449.859863,293.641968 
	C447.263092,293.964691 444.668793,295.043640 442.123474,294.901581 
	C435.391449,294.525757 428.689606,293.631744 421.968872,293.019379 
	C419.476929,292.792358 417.496094,293.189240 416.750671,296.317322 
	C416.488708,297.416809 414.256226,298.840240 413.064026,298.720184 
	C411.631500,298.575928 410.365082,296.919342 408.997070,295.959839 
	C407.555237,294.948547 406.106628,293.189941 404.612183,293.137054 
	C396.623535,292.854309 388.612823,292.830994 380.626801,293.147919 
	C379.035065,293.211090 377.537720,295.175842 375.960052,296.207520 
	C374.478882,297.176117 372.981934,298.811218 371.435425,298.879852 
	C359.153290,299.424805 346.839020,299.371674 334.575317,300.146179 
	C329.730591,300.452209 324.243683,301.318878 320.450745,303.950439 
	C317.713104,305.849762 315.574677,307.291168 312.410278,306.974548 
	C308.329224,306.566193 305.995087,308.573914 304.047974,311.935883 
	C303.091736,313.587006 301.223480,315.428528 299.489471,315.770203 
	C295.040741,316.646698 294.158661,319.265717 293.871796,323.238800 
	C293.647125,326.350494 292.147278,329.351044 291.431610,332.451202 
	C290.559021,336.231201 289.135254,340.101929 289.319489,343.866364 
	C289.836060,354.419739 291.425781,364.922943 291.874481,375.476471 
	C292.190430,382.907898 291.012115,390.391571 291.066467,397.847778 
	C291.181702,413.640320 291.799408,429.428986 291.935669,445.221649 
	C291.991364,451.677490 291.066772,458.139801 291.073151,464.598663 
	C291.079865,471.391479 291.971191,478.185577 291.929779,484.975800 
	C291.864960,495.602600 291.199188,506.224548 291.049133,516.852295 
	C290.883209,528.601135 291.008148,540.354126 291.019836,552.105347 
	C291.020508,552.767395 291.197662,553.429077 291.200012,554.091309 
	C291.217438,559.019653 291.365967,563.954102 291.174164,568.874939 
	C290.925781,575.248413 290.137665,581.608032 290.065460,587.979126 
	C289.988586,594.758545 291.157593,601.612427 290.488586,608.304443 
	C290.009094,613.100708 291.098969,615.773560 295.502258,616.950073 
	C298.630341,617.785828 299.673950,619.891724 298.891052,622.539612 
	C298.130280,625.112793 295.499695,627.445435 295.534698,629.856995 
	C295.572388,632.454041 298.643738,634.954407 298.839600,637.611328 
	C299.571350,647.540405 299.585938,657.520447 300.083282,667.470703 
	C300.165222,669.110046 301.035797,671.874817 302.024139,672.112305 
	C307.813049,673.503174 307.177551,677.734253 307.000427,681.902710 
	C306.892303,684.447937 307.017212,686.212463 310.185333,687.606445 
	C312.423370,688.591248 314.528229,692.263184 314.751160,694.899719 
	C315.109985,699.143311 314.750702,703.011292 319.898407,704.506470 
	C320.733429,704.749023 321.746735,705.770813 321.940247,706.603760 
	C323.245605,712.222717 327.379395,710.709961 331.266418,710.847046 
	C339.439758,711.135376 348.136383,709.991577 354.459503,717.284302 
	C355.010834,717.920166 356.268921,718.126953 357.223663,718.198059 
	C361.681335,718.529724 366.152985,718.678101 370.608887,719.028748 
	C372.727325,719.195374 375.593933,718.919861 376.779144,720.144226 
	C380.067841,723.541443 383.936035,722.981934 387.832947,722.993530 
	C395.331573,723.015869 402.830841,723.045959 410.328644,722.963440 
	C411.940796,722.945679 413.748291,722.848816 415.123962,722.132202 
	C422.712616,718.178772 430.175232,714.738098 436.459137,722.135925 
	C440.263092,720.989868 444.138275,718.419434 446.395355,719.437317 
	C450.954651,721.493408 453.824097,721.955933 458.787781,719.404236 
	C462.934570,717.272339 469.386963,717.673828 474.182526,721.584167 
	C477.680542,724.436401 486.361969,724.060852 488.961060,721.678894 
	C490.348602,720.407166 492.353455,719.294617 494.177094,719.118469 
	C498.139465,718.735779 502.213867,718.615967 506.147766,719.123108 
	C509.224548,719.519775 512.124695,721.148682 515.173584,721.968994 
	C516.355591,722.286987 518.071350,722.367249 518.962036,721.735413 
	C524.311279,717.940369 525.220886,718.504883 531.278687,721.713501 
	C534.305176,723.316467 540.155396,723.758789 542.362488,721.906738 
	C547.640991,717.477112 553.658447,718.054199 558.404907,719.546692 
	C563.288391,721.082153 566.254944,721.317322 571.236450,719.299438 
	C576.443054,717.190430 583.658020,717.586609 589.179749,719.387451 
	C594.882935,721.247375 599.269104,720.391907 604.828491,719.429443 
	C615.201050,717.633667 626.004578,718.168640 636.631958,718.068359 
	C642.254272,718.015320 647.891296,719.033875 653.507141,718.909668 
	C661.015381,718.743774 668.100769,717.061035 674.116760,711.878723 
	C676.097595,710.172485 678.796204,710.316040 681.071655,713.005859 
	C682.043701,714.154968 685.510254,714.745178 686.637451,713.927307 
	C690.357910,711.228088 695.582520,710.408508 697.557373,705.214783 
	C698.018127,704.002869 700.876709,703.192993 702.673950,703.110291 
	C705.931519,702.960388 706.906921,701.579895 707.091370,698.483826 
	C707.273987,695.418518 708.089050,692.363586 708.869019,689.367126 
	C710.260132,684.022217 715.333191,680.296570 715.501404,674.314758 
	C715.533325,673.178406 716.905212,672.119690 717.509155,670.947998 
	C718.096130,669.809265 718.875244,668.581055 718.905212,667.375549 
	C719.056396,661.295288 718.843750,655.204163 719.072754,649.128723 
	C719.164368,646.697388 720.001709,644.281555 720.602356,641.884399 
	C722.372925,634.817383 725.188721,627.845581 725.781006,620.686401 
	C726.871094,607.507690 726.805176,594.223450 726.962036,580.980164 
	C727.130249,566.781189 727.128601,552.577148 726.960693,538.378235 
	C726.817810,526.301208 726.157043,514.229553 726.068848,502.153046 
	C726.019226,495.363373 726.821167,488.571442 726.942749,481.775208 
	C727.022278,477.333344 726.393921,472.881866 726.395752,468.434814 
	C726.398682,461.300781 727.094177,454.144226 726.722717,447.037659 
	C725.975647,432.744812 725.134216,418.481812 726.667053,404.189392 
	C726.765869,403.267517 726.094116,401.664215 725.364014,401.351776 
	C721.318359,399.620209 721.500000,395.991913 720.991333,392.598175 
	C720.481689,389.197510 719.617798,385.826691 719.416504,382.412872 
	C719.315918,380.707275 719.850037,378.464844 720.964966,377.286316 
	C723.649658,374.448486 723.749207,371.477692 720.969238,368.743744 
	C719.940857,367.732361 719.195557,366.015839 719.090210,364.565063 
	C718.825562,360.918121 719.204834,357.223541 718.925049,353.578857 
	C718.739014,351.154907 718.489075,348.329468 717.155090,346.491089 
	C714.910461,343.397736 711.781067,340.946350 709.023804,338.224915 
	C709.532227,338.006775 710.040649,337.788635 710.549072,337.570496 
	C710.109070,334.876617 710.076721,332.031555 709.145142,329.520020 
	C707.142029,324.119843 701.901245,320.034943 702.744446,313.385437 
	C702.834229,312.677521 701.030884,311.739105 700.119324,310.893066 
	C693.527771,304.775421 683.935791,308.104919 676.447998,302.855316 
	C671.460083,299.358398 663.496765,299.376495 656.822083,299.162170 
	C641.587097,298.673004 626.325623,299.009338 611.074951,299.007416 
	C601.490784,299.006195 591.903015,299.126831 582.326111,298.861145 
	C580.858093,298.820435 579.463074,296.951233 577.992249,295.992218 
	C576.402954,294.955994 574.872437,293.515991 573.120361,293.121002 
	C570.834656,292.605652 568.610718,292.917175 567.805237,296.143616 
	C567.507141,297.337708 565.340637,298.819153 563.975830,298.872253 
	C554.253540,299.250488 544.426392,301.093781 534.899780,297.235382 
	C533.647827,296.728302 531.631226,296.752563 530.539429,297.438751 
	C525.507385,300.601257 519.995667,299.985718 513.567444,300.000000 
z"/>
<path fill="#F8F8F7" opacity="1.000000" stroke="none" 
	d="
M284.887512,673.456421 
	C290.060394,673.458984 290.060394,673.458984 288.529144,683.333191 
	C296.490417,683.658447 295.837738,683.996277 299.202667,694.806519 
	C301.718811,702.889832 304.576324,711.400330 311.830627,717.019897 
	C312.765228,717.743896 314.309174,717.660889 315.554901,718.008850 
	C316.947113,718.397827 319.016357,718.424194 319.585785,719.349792 
	C322.433228,723.978027 326.788971,724.168823 331.374908,723.993835 
	C334.434052,723.877136 336.451111,724.907898 337.072083,728.225586 
	C337.619934,731.152527 339.658875,732.858398 342.515167,731.573303 
	C348.704376,728.788757 354.231262,732.842407 360.132050,732.816040 
	C365.092590,732.793884 370.053192,733.342712 375.017334,733.425964 
	C381.666138,733.537476 388.318512,733.413208 394.969055,733.449646 
	C398.764496,733.470398 402.613983,734.056824 406.342712,733.600525 
	C413.687805,732.701416 420.957672,731.200012 428.280426,730.091492 
	C429.332947,729.932190 430.698181,730.285095 431.593903,730.885437 
	C439.725586,736.335876 448.268982,733.932007 456.913086,732.720642 
	C462.103546,731.993286 467.473389,732.301636 472.747955,732.511658 
	C475.831635,732.634399 478.884766,733.919250 481.954681,733.931641 
	C510.615631,734.047058 539.278625,734.161133 567.937866,733.908142 
	C577.324951,733.825256 586.697632,732.572571 596.088501,732.073120 
	C598.157410,731.963135 600.268616,733.065552 602.372437,733.117371 
	C609.382019,733.290161 616.399292,733.348877 623.408997,733.213379 
	C625.837280,733.166504 628.248535,732.083252 630.673706,732.057678 
	C642.670166,731.930969 654.669678,732.076111 666.665588,731.926514 
	C668.718506,731.900879 670.759460,730.911438 672.805908,730.367249 
	C672.776184,729.890747 672.746399,729.414185 672.716675,728.937683 
	C671.346375,728.392334 669.976074,727.846985 668.605835,727.301636 
	C668.603210,726.969360 668.600586,726.637146 668.597961,726.304932 
	C671.288025,726.304932 673.978943,726.262207 676.667725,726.320862 
	C678.287476,726.356140 679.968140,726.893738 681.509338,726.605713 
	C685.880066,725.788818 690.271851,724.908508 694.494995,723.553589 
	C696.539490,722.897583 698.272522,721.186096 700.063477,719.841797 
	C704.291565,716.667786 708.469666,713.427185 711.930908,709.473389 
	C716.145569,708.727844 717.192200,707.496277 718.110229,702.304504 
	C718.835999,698.200378 720.685608,694.307861 721.734680,690.243591 
	C722.431396,687.544128 722.887085,684.711792 722.928711,681.931213 
	C722.984497,678.202087 722.878235,674.661377 726.243164,671.996887 
	C727.160583,671.270386 727.718689,669.697021 727.858948,668.446899 
	C728.669373,661.224976 729.105042,653.956543 730.068481,646.757568 
	C730.741272,641.730347 732.091675,636.796082 733.066101,631.805908 
	C733.474854,629.712646 733.695374,627.582642 733.999817,625.469116 
	C734.933350,618.987976 735.868835,612.507141 736.794739,606.024902 
	C736.888672,605.367554 736.994263,604.699463 736.973816,604.040039 
	C736.666565,594.162598 735.999207,584.281067 736.134583,574.410339 
	C736.226746,567.689270 737.774231,560.996826 738.037720,554.266785 
	C738.247498,548.907654 737.486511,543.511780 737.181152,538.130798 
	C736.997070,534.887329 736.776062,531.642639 736.718140,528.395874 
	C736.571533,520.177734 736.370972,511.956604 736.462891,503.739685 
	C736.516174,498.981567 737.060425,494.226227 737.492615,489.479553 
	C737.530762,489.061218 738.377808,488.716492 738.784912,488.389252 
	C740.016663,491.053162 741.125122,493.450317 742.592285,495.923340 
	C743.019409,498.376404 743.087708,500.753601 742.667908,503.673340 
	C741.786926,505.389893 741.173035,506.538849 741.036804,507.741882 
	C740.083801,516.159241 742.987793,524.867249 739.113892,533.087524 
	C738.876404,533.591370 739.186462,534.380432 739.311462,535.023193 
	C739.860291,537.845886 740.862915,540.654663 740.922180,543.484802 
	C741.125061,553.176880 740.917725,562.877319 741.087341,572.570679 
	C741.113403,574.057251 742.300903,575.523438 742.951233,576.999084 
	C743.017761,587.360962 743.084290,597.722839 742.662842,608.650391 
	C741.783936,613.809937 741.393188,618.403748 741.001587,623.445862 
	C741.647583,626.929077 742.294434,629.963989 742.941284,632.998901 
	C742.986328,655.022522 743.031372,677.046204 742.643799,699.450500 
	C741.497009,698.394043 740.782776,696.956970 740.068542,695.519897 
	C739.666199,695.566650 739.263855,695.613464 738.861511,695.660217 
	C738.671631,699.528503 738.481750,703.396729 738.302795,707.041687 
	C736.312378,708.602966 732.671814,710.037415 731.598877,712.562805 
	C728.180908,720.606995 722.206909,726.372681 716.236816,732.263123 
	C713.399292,735.062744 709.809143,737.603821 713.878662,742.153687 
	C714.257507,742.577209 713.368225,744.134827 713.067749,745.165894 
	C708.330750,745.714783 703.595947,746.715088 698.856323,746.738647 
	C669.886108,746.882874 640.914856,746.805542 611.436401,746.460754 
	C610.278015,746.287170 609.627197,746.454895 608.976379,746.622620 
	C595.964539,746.690002 582.952759,746.757446 569.435120,746.475464 
	C568.278259,746.290039 567.627258,746.454041 566.976196,746.618042 
	C537.965454,746.680908 508.954681,746.743774 479.375854,746.393921 
	C476.863831,746.194702 474.919891,746.408142 472.975983,746.621582 
	C441.201111,746.691895 409.426270,746.780823 377.651367,746.825073 
	C360.181274,746.849426 342.710999,746.823730 325.241058,746.753479 
	C322.760895,746.743530 320.282227,746.352905 317.320801,745.660767 
	C315.542511,744.799194 314.246338,744.415405 312.950134,744.031616 
	C312.950134,744.031677 312.977814,743.992371 312.981903,743.601074 
	C312.888611,740.848755 313.758362,737.629700 310.150452,737.465027 
	C306.481354,737.297668 307.035278,740.464722 306.992126,742.887512 
	C303.388062,740.524231 299.783966,738.160950 296.072296,735.062195 
	C295.969666,729.111450 295.969666,729.111450 292.898865,730.243896 
	C292.573730,730.191101 292.247894,730.143311 291.816772,729.585510 
	C291.114532,728.390930 290.516846,727.711304 289.919189,727.031677 
	C288.261200,721.609436 285.513611,716.255798 285.167450,710.751038 
	C284.397766,698.511780 284.830353,686.196838 284.887512,673.456421 
M293.725006,726.526489 
	C293.990143,726.274414 294.257721,726.024719 294.506409,725.757324 
	C294.512787,725.750427 294.311615,725.550415 294.207214,725.440491 
	C293.941925,725.692932 293.676636,725.945435 293.725006,726.526489 
z"/>
<path fill="#F6F5F4" opacity="1.000000" stroke="none" 
	d="
M743.047913,376.542603 
	C742.297485,378.652893 741.160828,380.280518 741.079895,381.959076 
	C740.584839,392.229065 740.341125,402.510986 739.972046,412.787476 
	C739.940735,413.658447 739.604492,414.518494 738.518311,415.340729 
	C738.161011,413.174408 737.897766,410.987396 737.427429,408.845917 
	C736.338562,403.888367 734.374268,398.977631 734.214783,394.001495 
	C734.048645,388.817871 735.644226,383.587555 736.336975,378.360107 
	C736.522949,376.956573 736.622681,375.316711 736.085144,374.079468 
	C733.098328,367.205078 734.726013,360.133728 734.420593,353.103058 
	C734.174500,347.437988 730.704407,341.889862 728.507751,336.352112 
	C728.064209,335.233795 726.595215,334.521698 726.153320,333.403351 
	C724.803467,329.986816 723.698181,326.471954 722.545776,322.979553 
	C721.016418,318.344635 719.200073,313.767853 718.156982,309.023224 
	C717.559692,306.305908 716.357300,305.498413 714.135132,306.201965 
	C710.702026,307.288879 710.127380,305.618134 709.972839,302.772980 
	C709.446228,293.078613 709.384399,293.128204 700.121704,290.918579 
	C699.017273,290.655090 698.115173,289.543579 697.058350,288.459686 
	C717.862610,286.729126 733.582947,295.040833 740.082642,311.603912 
	C741.975891,316.428711 742.834412,321.918915 742.954712,327.132050 
	C743.330933,343.442017 743.128052,359.765381 743.047913,376.542603 
z"/>
<path fill="#EBEBE9" opacity="1.000000" stroke="none" 
	d="
M713.461792,745.177490 
	C713.368225,744.134827 714.257507,742.577209 713.878662,742.153687 
	C709.809143,737.603821 713.399292,735.062744 716.236816,732.263123 
	C722.206909,726.372681 728.180908,720.606995 731.598877,712.562805 
	C732.671814,710.037415 736.312378,708.602966 738.302795,707.041687 
	C738.481750,703.396729 738.671631,699.528503 738.861511,695.660217 
	C739.263855,695.613464 739.666199,695.566650 740.068542,695.519897 
	C740.782776,696.956970 741.497009,698.394043 742.560303,699.912170 
	C742.943237,702.704346 742.977051,705.415466 742.549988,708.583496 
	C741.475769,709.609802 740.862427,710.179199 740.249084,710.748535 
	C741.019226,711.225708 741.789368,711.702881 742.559448,712.180054 
	C740.360901,728.925354 729.630066,741.265808 713.461792,745.177490 
z"/>
<path fill="#FBFAFB" opacity="1.000000" stroke="none" 
	d="
M743.044067,576.538574 
	C742.300903,575.523438 741.113403,574.057251 741.087341,572.570679 
	C740.917725,562.877319 741.125061,553.176880 740.922180,543.484802 
	C740.862915,540.654663 739.860291,537.845886 739.311462,535.023193 
	C739.186462,534.380432 738.876404,533.591370 739.113892,533.087524 
	C742.987793,524.867249 740.083801,516.159241 741.036804,507.741882 
	C741.173035,506.538849 741.786926,505.389893 742.565979,504.108490 
	C743.013794,528.026733 743.075378,552.052368 743.044067,576.538574 
z"/>
<path fill="#EBEBE9" opacity="1.000000" stroke="none" 
	d="
M307.301453,743.004639 
	C307.035278,740.464722 306.481354,737.297668 310.150452,737.465027 
	C313.758362,737.629700 312.888611,740.848755 312.981750,743.624878 
	C311.188599,743.733887 309.399689,743.427856 307.301453,743.004639 
z"/>
<path fill="#FDFDFD" opacity="1.000000" stroke="none" 
	d="
M741.002441,622.997559 
	C741.393188,618.403748 741.783936,613.809937 742.558716,609.109131 
	C743.003662,613.363831 743.064575,617.725647 742.707153,622.543457 
	C741.860046,622.998840 741.431274,622.998169 741.002441,622.997559 
z"/>
<path fill="#FBFAFB" opacity="1.000000" stroke="none" 
	d="
M741.001587,623.445862 
	C741.431274,622.998169 741.860046,622.998840 742.610474,622.999268 
	C742.997437,626.034851 743.062683,629.070679 743.034668,632.552673 
	C742.294434,629.963989 741.647583,626.929077 741.001587,623.445862 
z"/>
<path fill="#F8F8F7" opacity="1.000000" stroke="none" 
	d="
M284.901642,662.418579 
	C285.995728,662.787109 287.794922,663.589417 287.780731,664.358276 
	C287.758301,665.572571 286.519196,666.764404 285.403625,667.982910 
	C284.939301,666.279175 284.866364,664.558167 284.901642,662.418579 
z"/>
<path fill="#EBEBE9" opacity="1.000000" stroke="none" 
	d="
M292.915405,730.589111 
	C295.969666,729.111450 295.969666,729.111450 295.944946,734.751709 
	C294.927460,733.762573 293.929718,732.348450 292.915405,730.589111 
z"/>
<path fill="#EBEBE9" opacity="1.000000" stroke="none" 
	d="
M473.399292,746.723022 
	C474.919891,746.408142 476.863831,746.194702 478.915955,746.307800 
	C477.290344,746.697754 475.556458,746.761108 473.399292,746.723022 
z"/>
<path fill="#F8F8F7" opacity="1.000000" stroke="none" 
	d="
M742.676392,711.878784 
	C741.789368,711.702881 741.019226,711.225708 740.249084,710.748535 
	C740.862427,710.179199 741.475769,709.609802 742.453308,709.026062 
	C742.809387,709.867004 742.801331,710.722229 742.676392,711.878784 
z"/>
<path fill="#EBEBE9" opacity="1.000000" stroke="none" 
	d="
M313.105011,744.357300 
	C314.246338,744.415405 315.542511,744.799194 316.923462,745.531860 
	C315.758820,745.481506 314.509369,745.082275 313.105011,744.357300 
z"/>
<path fill="#EBEBE9" opacity="1.000000" stroke="none" 
	d="
M289.956543,727.362427 
	C290.516846,727.711304 291.114532,728.390930 291.607910,729.453613 
	C291.000336,729.122192 290.497131,728.407654 289.956543,727.362427 
z"/>
<path fill="#EBEBE9" opacity="1.000000" stroke="none" 
	d="
M567.311768,746.718994 
	C567.627258,746.454041 568.278259,746.290039 568.976685,746.380981 
	C568.565063,746.697266 568.106201,746.758545 567.311768,746.718994 
z"/>
<path fill="#EBEBE9" opacity="1.000000" stroke="none" 
	d="
M609.312683,746.722290 
	C609.627197,746.454895 610.278015,746.287170 610.976562,746.374146 
	C610.565918,746.693176 610.107422,746.757568 609.312683,746.722290 
z"/>
<path fill="#FDFDFD" opacity="1.000000" stroke="none" 
	d="
M514.051392,300.000000 
	C519.995667,299.985718 525.507385,300.601257 530.539429,297.438751 
	C531.631226,296.752563 533.647827,296.728302 534.899780,297.235382 
	C544.426392,301.093781 554.253540,299.250488 563.975830,298.872253 
	C565.340637,298.819153 567.507141,297.337708 567.805237,296.143616 
	C568.610718,292.917175 570.834656,292.605652 573.120361,293.121002 
	C574.872437,293.515991 576.402954,294.955994 577.992249,295.992218 
	C579.463074,296.951233 580.858093,298.820435 582.326111,298.861145 
	C591.903015,299.126831 601.490784,299.006195 611.074951,299.007416 
	C626.325623,299.009338 641.587097,298.673004 656.822083,299.162170 
	C663.496765,299.376495 671.460083,299.358398 676.447998,302.855316 
	C683.935791,308.104919 693.527771,304.775421 700.119324,310.893066 
	C701.030884,311.739105 702.834229,312.677521 702.744446,313.385437 
	C701.901245,320.034943 707.142029,324.119843 709.145142,329.520020 
	C710.076721,332.031555 710.109070,334.876617 710.549072,337.570496 
	C710.040649,337.788635 709.532227,338.006775 709.023804,338.224915 
	C711.781067,340.946350 714.910461,343.397736 717.155090,346.491089 
	C718.489075,348.329468 718.739014,351.154907 718.925049,353.578857 
	C719.204834,357.223541 718.825562,360.918121 719.090210,364.565063 
	C719.195557,366.015839 719.940857,367.732361 720.969238,368.743744 
	C723.749207,371.477692 723.649658,374.448486 720.964966,377.286316 
	C719.850037,378.464844 719.315918,380.707275 719.416504,382.412872 
	C719.617798,385.826691 720.481689,389.197510 720.991333,392.598175 
	C721.500000,395.991913 721.318359,399.620209 725.364014,401.351776 
	C726.094116,401.664215 726.765869,403.267517 726.667053,404.189392 
	C725.134216,418.481812 725.975647,432.744812 726.722717,447.037659 
	C727.094177,454.144226 726.398682,461.300781 726.395752,468.434814 
	C726.393921,472.881866 727.022278,477.333344 726.942749,481.775208 
	C726.821167,488.571442 726.019226,495.363373 726.068848,502.153046 
	C726.157043,514.229553 726.817810,526.301208 726.960693,538.378235 
	C727.128601,552.577148 727.130249,566.781189 726.962036,580.980164 
	C726.805176,594.223450 726.871094,607.507690 725.781006,620.686401 
	C725.188721,627.845581 722.372925,634.817383 720.602356,641.884399 
	C720.001709,644.281555 719.164368,646.697388 719.072754,649.128723 
	C718.843750,655.204163 719.056396,661.295288 718.905212,667.375549 
	C718.875244,668.581055 718.096130,669.809265 717.509155,670.947998 
	C716.905212,672.119690 715.533325,673.178406 715.501404,674.314758 
	C715.333191,680.296570 710.260132,684.022217 708.869019,689.367126 
	C708.089050,692.363586 707.273987,695.418518 707.091370,698.483826 
	C706.906921,701.579895 705.931519,702.960388 702.673950,703.110291 
	C700.876709,703.192993 698.018127,704.002869 697.557373,705.214783 
	C695.582520,710.408508 690.357910,711.228088 686.637451,713.927307 
	C685.510254,714.745178 682.043701,714.154968 681.071655,713.005859 
	C678.796204,710.316040 676.097595,710.172485 674.116760,711.878723 
	C668.100769,717.061035 661.015381,718.743774 653.507141,718.909668 
	C647.891296,719.033875 642.254272,718.015320 636.631958,718.068359 
	C626.004578,718.168640 615.201050,717.633667 604.828491,719.429443 
	C599.269104,720.391907 594.882935,721.247375 589.179749,719.387451 
	C583.658020,717.586609 576.443054,717.190430 571.236450,719.299438 
	C566.254944,721.317322 563.288391,721.082153 558.404907,719.546692 
	C553.658447,718.054199 547.640991,717.477112 542.362488,721.906738 
	C540.155396,723.758789 534.305176,723.316467 531.278687,721.713501 
	C525.220886,718.504883 524.311279,717.940369 518.962036,721.735413 
	C518.071350,722.367249 516.355591,722.286987 515.173584,721.968994 
	C512.124695,721.148682 509.224548,719.519775 506.147766,719.123108 
	C502.213867,718.615967 498.139465,718.735779 494.177094,719.118469 
	C492.353455,719.294617 490.348602,720.407166 488.961060,721.678894 
	C486.361969,724.060852 477.680542,724.436401 474.182526,721.584167 
	C469.386963,717.673828 462.934570,717.272339 458.787781,719.404236 
	C453.824097,721.955933 450.954651,721.493408 446.395355,719.437317 
	C444.138275,718.419434 440.263092,720.989868 436.459137,722.135925 
	C430.175232,714.738098 422.712616,718.178772 415.123962,722.132202 
	C413.748291,722.848816 411.940796,722.945679 410.328644,722.963440 
	C402.830841,723.045959 395.331573,723.015869 387.832947,722.993530 
	C383.936035,722.981934 380.067841,723.541443 376.779144,720.144226 
	C375.593933,718.919861 372.727325,719.195374 370.608887,719.028748 
	C366.152985,718.678101 361.681335,718.529724 357.223663,718.198059 
	C356.268921,718.126953 355.010834,717.920166 354.459503,717.284302 
	C348.136383,709.991577 339.439758,711.135376 331.266418,710.847046 
	C327.379395,710.709961 323.245605,712.222717 321.940247,706.603760 
	C321.746735,705.770813 320.733429,704.749023 319.898407,704.506470 
	C314.750702,703.011292 315.109985,699.143311 314.751160,694.899719 
	C314.528229,692.263184 312.423370,688.591248 310.185333,687.606445 
	C307.017212,686.212463 306.892303,684.447937 307.000427,681.902710 
	C307.177551,677.734253 307.813049,673.503174 302.024139,672.112305 
	C301.035797,671.874817 300.165222,669.110046 300.083282,667.470703 
	C299.585938,657.520447 299.571350,647.540405 298.839600,637.611328 
	C298.643738,634.954407 295.572388,632.454041 295.534698,629.856995 
	C295.499695,627.445435 298.130280,625.112793 298.891052,622.539612 
	C299.673950,619.891724 298.630341,617.785828 295.502258,616.950073 
	C291.098969,615.773560 290.009094,613.100708 290.488586,608.304443 
	C291.157593,601.612427 289.988586,594.758545 290.065460,587.979126 
	C290.137665,581.608032 290.925781,575.248413 291.174164,568.874939 
	C291.365967,563.954102 291.217438,559.019653 291.200012,554.091309 
	C291.197662,553.429077 291.020508,552.767395 291.019836,552.105347 
	C291.008148,540.354126 290.883209,528.601135 291.049133,516.852295 
	C291.199188,506.224548 291.864960,495.602600 291.929779,484.975800 
	C291.971191,478.185577 291.079865,471.391479 291.073151,464.598663 
	C291.066772,458.139801 291.991364,451.677490 291.935669,445.221649 
	C291.799408,429.428986 291.181702,413.640320 291.066467,397.847778 
	C291.012115,390.391571 292.190430,382.907898 291.874481,375.476471 
	C291.425781,364.922943 289.836060,354.419739 289.319489,343.866364 
	C289.135254,340.101929 290.559021,336.231201 291.431610,332.451202 
	C292.147278,329.351044 293.647125,326.350494 293.871796,323.238800 
	C294.158661,319.265717 295.040741,316.646698 299.489471,315.770203 
	C301.223480,315.428528 303.091736,313.587006 304.047974,311.935883 
	C305.995087,308.573914 308.329224,306.566193 312.410278,306.974548 
	C315.574677,307.291168 317.713104,305.849762 320.450745,303.950439 
	C324.243683,301.318878 329.730591,300.452209 334.575317,300.146179 
	C346.839020,299.371674 359.153290,299.424805 371.435425,298.879852 
	C372.981934,298.811218 374.478882,297.176117 375.960052,296.207520 
	C377.537720,295.175842 379.035065,293.211090 380.626801,293.147919 
	C388.612823,292.830994 396.623535,292.854309 404.612183,293.137054 
	C406.106628,293.189941 407.555237,294.948547 408.997070,295.959839 
	C410.365082,296.919342 411.631500,298.575928 413.064026,298.720184 
	C414.256226,298.840240 416.488708,297.416809 416.750671,296.317322 
	C417.496094,293.189240 419.476929,292.792358 421.968872,293.019379 
	C428.689606,293.631744 435.391449,294.525757 442.123474,294.901581 
	C444.668793,295.043640 447.263092,293.964691 449.859863,293.641968 
	C451.789185,293.402191 453.964508,292.911865 455.672638,293.526703 
	C461.564972,295.647888 467.134399,294.876984 473.171692,293.745453 
	C479.772156,292.508362 486.741241,293.227386 493.550262,293.139008 
	C493.997192,293.133209 494.705078,293.393219 494.861298,293.729492 
	C498.901154,302.425476 507.105804,298.612762 514.051392,300.000000 
M423.902313,661.054077 
	C423.902313,661.054077 423.919708,661.208008 423.949921,661.955017 
	C424.133636,662.744934 424.062469,663.988770 424.539368,664.256531 
	C431.446045,668.135437 438.371857,671.991394 445.444000,675.553162 
	C446.584961,676.127808 448.455750,675.253296 450.648193,675.008484 
	C451.430237,675.382629 452.212280,675.756775 453.149475,676.823242 
	C456.689514,677.777832 460.229584,678.732422 464.495514,679.628174 
	C467.658203,680.537720 470.820862,681.447205 474.004181,683.018066 
	C474.562073,683.614990 475.119934,684.211975 475.677765,684.808899 
	C476.119629,684.248840 476.561462,683.688843 477.809418,683.057617 
	C483.539886,684.033325 489.270325,685.009094 495.082703,686.561096 
	C495.389160,686.881104 495.695618,687.201050 496.002075,687.521057 
	C496.335754,687.041565 496.669434,686.562073 497.747711,685.935669 
	C498.495544,686.025269 499.243347,686.114868 500.068329,686.829834 
	C502.145752,689.587769 504.099792,688.547058 506.902344,686.340942 
	C510.592987,686.463928 514.283630,686.586975 518.021606,687.086731 
	C518.357727,686.943420 518.693909,686.800110 519.908020,686.332214 
	C524.888367,686.038513 529.868713,685.744812 535.172241,686.120972 
	C536.449463,685.779114 537.726685,685.437195 539.749756,684.836670 
	C541.840637,684.581909 543.931519,684.327148 546.634094,684.606812 
	C549.550110,684.710754 552.560730,685.293274 555.347473,684.742798 
	C557.074768,684.401611 558.462280,682.340393 560.603394,680.681702 
	C562.400574,680.177551 564.197815,679.673401 566.144043,679.825562 
	C569.950439,681.489685 572.001160,679.095032 574.299744,676.189148 
	C574.299744,676.189148 574.738159,676.244263 575.006104,676.872681 
	C576.005676,676.283813 577.005310,675.694946 578.602356,674.697937 
	C683.036438,632.417480 700.806458,519.083252 672.980164,458.850586 
	C671.204468,460.364929 669.499023,461.890076 667.720764,463.324921 
	C647.135132,479.934631 626.571899,496.572327 605.938049,513.122009 
	C557.918152,551.637146 509.876099,590.124756 461.812866,628.585876 
	C449.102966,638.756531 436.283478,648.790344 422.971802,658.933533 
	C422.563629,659.274597 422.155457,659.615662 421.747284,659.956726 
	C422.415741,660.335754 423.084167,660.714783 423.902313,661.054077 
M496.279816,457.774841 
	C531.436707,429.702087 566.593628,401.629333 601.814148,373.505798 
	C554.299438,340.642334 458.318665,336.087585 394.625214,395.040375 
	C337.675842,447.751038 334.681824,529.835754 353.666443,572.206116 
	C401.031189,534.174194 448.360260,496.170868 496.279816,457.774841 
M484.654785,299.680115 
	C486.728699,298.667236 488.802582,297.654358 490.876495,296.641449 
	C490.673950,296.095856 490.471436,295.550232 490.268890,295.004639 
	C488.510132,295.004639 486.729614,294.837402 485.000061,295.062225 
	C483.806152,295.217438 482.682709,295.914764 481.527771,296.369812 
	C482.343872,297.395599 483.160004,298.421387 484.654785,299.680115 
M704.358032,697.404297 
	C702.329102,694.175293 701.917175,694.164795 699.228333,697.811890 
	C701.003174,697.811890 702.393372,697.811890 704.358032,697.404297 
M487.486115,686.569824 
	C487.486115,686.569824 487.435242,686.478394 487.486115,686.569824 
M449.515015,678.430908 
	C449.515015,678.430908 449.564819,678.520874 449.515015,678.430908 
z"/>
<path fill="#EBEBE9" opacity="1.000000" stroke="none" 
	d="
M293.568176,726.362183 
	C293.676636,725.945435 293.941925,725.692932 294.207214,725.440491 
	C294.311615,725.550415 294.512787,725.750427 294.506409,725.757324 
	C294.257721,726.024719 293.990143,726.274414 293.568176,726.362183 
z"/>
<path fill="#100E10" opacity="1.000000" stroke="none" 
	d="
M517.974243,686.709961 
	C514.283630,686.586975 510.592987,686.463928 506.063477,686.310730 
	C503.480103,686.255188 501.735657,686.229797 499.991180,686.204407 
	C499.243347,686.114868 498.495544,686.025269 497.051636,685.891479 
	C495.903961,685.893127 495.452362,685.938965 495.000793,685.984802 
	C489.270325,685.009094 483.539886,684.033325 477.126770,682.939819 
	C475.623901,682.666870 474.803711,682.511841 473.983521,682.356689 
	C470.820862,681.447205 467.658203,680.537720 463.840820,679.408447 
	C459.788849,678.169495 456.391602,677.150146 452.994324,676.130859 
	C452.212280,675.756775 451.430237,675.382629 450.073242,674.781738 
	C440.972076,670.106079 432.445892,665.657043 423.919708,661.208008 
	C423.919708,661.208008 423.902313,661.054077 423.704407,660.716309 
	C423.509064,659.881348 423.511658,659.384155 423.514282,658.886963 
	C436.283478,648.790344 449.102966,638.756531 461.812866,628.585876 
	C509.876099,590.124756 557.918152,551.637146 605.938049,513.122009 
	C626.571899,496.572327 647.135132,479.934631 667.720764,463.324921 
	C669.499023,461.890076 671.204468,460.364929 672.980164,458.850586 
	C700.806458,519.083252 683.036438,632.417480 578.007935,674.870361 
	C576.521667,675.443237 575.629944,675.843750 574.738159,676.244263 
	C574.738159,676.244263 574.299744,676.189148 573.736938,676.393921 
	C570.781067,677.455627 568.388000,678.312439 565.994995,679.169312 
	C564.197815,679.673401 562.400574,680.177551 559.944458,680.820923 
	C554.864441,681.997620 550.443420,683.035034 546.022400,684.072388 
	C543.931519,684.327148 541.840637,684.581909 539.029907,684.895874 
	C537.156433,685.120483 536.002747,685.285828 534.849060,685.451050 
	C529.868713,685.744812 524.888367,686.038513 519.197388,686.355713 
	C518.315979,686.489441 518.145142,686.599670 517.974243,686.709961 
z"/>
<path fill="#100E10" opacity="1.000000" stroke="none" 
	d="
M495.984589,457.971191 
	C448.360260,496.170868 401.031189,534.174194 353.666443,572.206116 
	C334.681824,529.835754 337.675842,447.751038 394.625214,395.040375 
	C458.318665,336.087585 554.299438,340.642334 601.814148,373.505798 
	C566.593628,401.629333 531.436707,429.702087 495.984589,457.971191 
z"/>
<path fill="#F6F5F4" opacity="1.000000" stroke="none" 
	d="
M423.934814,661.581543 
	C432.445892,665.657043 440.972076,670.106079 449.743713,674.801880 
	C448.455750,675.253296 446.584961,676.127808 445.444000,675.553162 
	C438.371857,671.991394 431.446045,668.135437 424.539368,664.256531 
	C424.062469,663.988770 424.133636,662.744934 423.934814,661.581543 
z"/>
<path fill="#FBFAFB" opacity="1.000000" stroke="none" 
	d="
M484.315430,299.563660 
	C483.160004,298.421387 482.343872,297.395599 481.527771,296.369812 
	C482.682709,295.914764 483.806152,295.217438 485.000061,295.062225 
	C486.729614,294.837402 488.510132,295.004639 490.268890,295.004639 
	C490.471436,295.550232 490.673950,296.095856 490.876495,296.641449 
	C488.802582,297.654358 486.728699,298.667236 484.315430,299.563660 
z"/>
<path fill="#F6F5F4" opacity="1.000000" stroke="none" 
	d="
M546.328247,684.339600 
	C550.443420,683.035034 554.864441,681.997620 559.643921,681.005737 
	C558.462280,682.340393 557.074768,684.401611 555.347473,684.742798 
	C552.560730,685.293274 549.550110,684.710754 546.328247,684.339600 
z"/>
<path fill="#F6F5F4" opacity="1.000000" stroke="none" 
	d="
M453.071899,676.477051 
	C456.391602,677.150146 459.788849,678.169495 463.477905,679.437866 
	C460.229584,678.732422 456.689514,677.777832 453.071899,676.477051 
z"/>
<path fill="#F6F5F4" opacity="1.000000" stroke="none" 
	d="
M566.069519,679.497437 
	C568.388000,678.312439 570.781067,677.455627 573.559204,676.525146 
	C572.001160,679.095032 569.950439,681.489685 566.069519,679.497437 
z"/>
<path fill="#FBFAFB" opacity="1.000000" stroke="none" 
	d="
M704.070801,697.608093 
	C702.393372,697.811890 701.003174,697.811890 699.228333,697.811890 
	C701.917175,694.164795 702.329102,694.175293 704.070801,697.608093 
z"/>
<path fill="#F6F5F4" opacity="1.000000" stroke="none" 
	d="
M500.029755,686.517090 
	C501.735657,686.229797 503.480103,686.255188 505.625061,686.458435 
	C504.099792,688.547058 502.145752,689.587769 500.029755,686.517090 
z"/>
<path fill="#F6F5F4" opacity="1.000000" stroke="none" 
	d="
M535.010620,685.786011 
	C536.002747,685.285828 537.156433,685.120483 538.657043,685.025269 
	C537.726685,685.437195 536.449463,685.779114 535.010620,685.786011 
z"/>
<path fill="#F6F5F4" opacity="1.000000" stroke="none" 
	d="
M473.993835,682.687378 
	C474.803711,682.511841 475.623901,682.666870 476.723694,682.975403 
	C476.561462,683.688843 476.119629,684.248840 475.677795,684.808899 
	C475.119934,684.211975 474.562073,683.614990 473.993835,682.687378 
z"/>
<path fill="#F6F5F4" opacity="1.000000" stroke="none" 
	d="
M574.872131,676.558472 
	C575.629944,675.843750 576.521667,675.443237 577.709167,675.074402 
	C577.005310,675.694946 576.005676,676.283813 574.872131,676.558472 
z"/>
<path fill="#F6F5F4" opacity="1.000000" stroke="none" 
	d="
M423.243042,658.910278 
	C423.511658,659.384155 423.509064,659.881348 423.629517,660.736206 
	C423.084167,660.714783 422.415741,660.335754 421.747284,659.956726 
	C422.155457,659.615662 422.563629,659.274597 423.243042,658.910278 
z"/>
<path fill="#F6F5F4" opacity="1.000000" stroke="none" 
	d="
M495.041748,686.272949 
	C495.452362,685.938965 495.903961,685.893127 496.679321,685.964966 
	C496.669434,686.562073 496.335754,687.041565 496.002075,687.521057 
	C495.695618,687.201050 495.389160,686.881104 495.041748,686.272949 
z"/>
<path fill="#F6F5F4" opacity="1.000000" stroke="none" 
	d="
M517.997925,686.898315 
	C518.145142,686.599670 518.315979,686.489441 518.758423,686.517944 
	C518.693909,686.800110 518.357727,686.943420 517.997925,686.898315 
z"/>
<path fill="#F6F5F4" opacity="1.000000" stroke="none" 
	d="
M487.460693,686.524109 
	C487.435242,686.478394 487.486115,686.569824 487.460693,686.524109 
z"/>
<path fill="#F6F5F4" opacity="1.000000" stroke="none" 
	d="
M449.539917,678.475891 
	C449.564819,678.520874 449.515015,678.430908 449.539917,678.475891 
z"/>
</svg>